<svg xmlns="http://www.w3.org/2000/svg" width="24" height="24" viewBox="0 0 24 24" fill="currentColor"><path d="M4.459 4.208c.746.606 1.026.56 2.428.466l13.215-.793c.28 0 .047-.28-.046-.326L18.29 2.168c-.42-.326-.98-.7-2.055-.607L3.01 2.721c-.466.046-.56.28-.374.466l1.823 1.021zm.793 3.358v13.904c0 .747.373 1.027 1.213.98l14.523-.84c.84-.046.933-.56.933-1.166V6.727c0-.607-.233-.933-.747-.886l-15.176.886c-.56.047-.746.327-.746.84zm14.337.745c.093.42 0 .84-.42.886l-.7.14v10.264c-.607.327-1.166.514-1.633.514-.746 0-.933-.234-1.493-.933l-4.571-7.178v6.952l1.446.327s0 .84-1.166.84l-3.218.187c-.093-.187 0-.653.327-.746l.84-.233V9.854L7.822 9.76c-.093-.42.14-1.026.793-1.073l3.451-.233 4.758 7.272V9.294l-1.213-.14c-.093-.514.28-.886.747-.933l3.218-.187z"></path></svg>