<svg width="668" height="179" viewBox="0 0 668 179" fill="none" xmlns="http://www.w3.org/2000/svg">
<path d="M30.045 13.9876C25.4013 9.42632 17.9392 9.49312 13.3779 14.1368C8.81657 18.7804 8.88338 26.2425 13.527 30.8038L65.0424 80.1099C65.0424 80.1099 71.5424 86.1106 71.5424 88.6102C71.5424 91.1099 65.5425 97.1139 65.0424 97.6099C64.5423 98.1059 13.4416 147.988 13.4416 147.988C8.84474 152.596 8.85414 160.059 13.4626 164.656C18.0711 169.253 25.5335 169.243 30.1304 164.635L91.5425 102.11C93.761 99.8857 98.0425 96.2564 98.0425 88.6102C98.0425 80.964 93.7836 76.8113 91.5425 74.6099L30.045 13.9876Z" fill="#010C04"></path>
<path d="M149.614 156.311C149.614 162.821 144.338 168.097 137.828 168.097C131.319 168.097 126.042 162.821 126.042 156.311L126.042 22.3958C126.042 15.8866 131.319 10.6099 137.828 10.6099C144.338 10.6099 149.614 15.8866 149.614 22.3958L149.614 156.311Z" fill="#010C04"></path>
<path d="M245.612 13.9876C250.255 9.42632 257.718 9.49312 262.279 14.1368C266.84 18.7804 266.773 26.2425 262.13 30.8038L210.614 80.1099C210.614 80.1099 204.114 86.1106 204.114 88.6102C204.114 91.1099 210.114 97.1139 210.614 97.6099C211.114 98.1059 262.215 147.988 262.215 147.988C266.812 152.596 266.803 160.059 262.194 164.656C257.586 169.253 250.123 169.243 245.526 164.635L184.114 102.11C181.896 99.8857 177.614 96.2564 177.614 88.6102C177.614 80.964 181.873 76.8113 184.114 74.6099L245.612 13.9876Z" fill="#010C04"></path>
<path d="M451.956 46.3466L430.903 52.305C429.579 48.7962 427.626 45.3866 425.044 42.0764C422.528 38.6999 419.085 35.9193 414.716 33.7346C410.346 31.5498 404.752 30.4574 397.933 30.4574C388.598 30.4574 380.819 32.6091 374.596 36.9124C368.439 41.1495 365.36 46.5452 365.36 53.0995C365.36 58.9255 367.479 63.5268 371.716 66.9033C375.953 70.2797 382.573 73.0934 391.577 75.3444L414.219 80.9056C427.857 84.2158 438.02 89.2805 444.707 96.0996C451.393 102.853 454.737 111.558 454.737 122.217C454.737 130.957 452.221 138.769 447.189 145.654C442.224 152.539 435.272 157.968 426.335 161.94C417.397 165.913 407.003 167.899 395.152 167.899C379.594 167.899 366.717 164.522 356.522 157.77C346.326 151.017 339.871 141.152 337.157 128.176L359.402 122.615C361.52 130.824 365.526 136.981 371.418 141.086C377.376 145.191 385.155 147.243 394.755 147.243C405.679 147.243 414.352 144.926 420.774 140.291C427.262 135.591 430.506 129.963 430.506 123.409C430.506 118.113 428.652 113.677 424.944 110.102C421.237 106.461 415.543 103.746 407.864 101.959L382.441 96.0003C368.472 92.6901 358.21 87.5592 351.656 80.6077C345.168 73.5899 341.923 64.8178 341.923 54.2912C341.923 45.6846 344.34 38.071 349.173 31.4505C354.072 24.83 360.726 19.6329 369.134 15.8592C377.608 12.0856 387.208 10.1987 397.933 10.1987C413.028 10.1987 424.878 13.509 433.485 20.1295C442.158 26.75 448.315 35.489 451.956 46.3466Z" fill="#010C04"></path>
<path d="M359.795 123.515C359.425 122.029 358.769 120.629 357.866 119.396C356.963 118.163 355.83 117.12 354.532 116.328C353.234 115.535 351.796 115.009 350.3 114.777C348.804 114.546 347.28 114.615 345.815 114.981C344.35 115.346 342.972 116 341.76 116.907C340.548 117.813 339.526 118.953 338.751 120.262C337.977 121.572 337.466 123.024 337.248 124.537C337.029 126.05 337.108 127.593 337.478 129.079L348.637 126.297L359.795 123.515Z" fill="#010C04"></path>
<path d="M430.588 52.3801C431.17 53.7969 432.01 55.0912 433.061 56.1893C434.112 57.2873 435.354 58.1675 436.714 58.7796C438.074 59.3918 439.527 59.7238 440.989 59.7569C442.451 59.7899 443.894 59.5233 445.236 58.9722C446.578 58.4212 447.792 57.5964 448.809 56.5451C449.826 55.4938 450.626 54.2366 451.163 52.8451C451.7 51.4536 451.964 49.9552 451.94 48.4354C451.916 46.9156 451.604 45.4041 451.022 43.9874L440.805 48.1837L430.588 52.3801Z" fill="#010C04"></path>
<path d="M535.49 168.097C525.824 168.097 517.052 166.277 509.174 162.635C501.295 158.928 495.039 153.598 490.405 146.647C485.77 139.629 483.453 131.155 483.453 121.224C483.453 112.485 485.174 105.401 488.617 99.9725C492.06 94.4775 496.661 90.1741 502.421 87.0625C508.181 83.9509 514.536 81.6337 521.488 80.111C528.506 78.5221 535.556 77.2642 542.64 76.3373C551.909 75.1456 559.423 74.2519 565.183 73.656C571.009 72.994 575.246 71.9016 577.894 70.3789C580.609 68.8562 581.966 66.208 581.966 62.4343V61.6398C581.966 51.8415 579.285 44.2279 573.922 38.7991C568.626 33.3703 560.582 30.6559 549.79 30.6559C538.602 30.6559 529.83 33.1055 523.474 38.0047C517.118 42.9038 512.649 48.134 510.068 53.6952L487.823 45.7507C491.795 36.482 497.091 29.2656 503.712 24.1016C510.399 18.8715 517.681 15.2302 525.559 13.1778C533.504 11.0593 541.316 10 548.996 10C553.895 10 559.523 10.5958 565.878 11.7875C572.3 12.913 578.49 15.2633 584.449 18.8383C590.473 22.4134 595.472 27.8091 599.444 35.0255C603.416 42.2418 605.403 51.9077 605.403 64.0232V155.522H581.966V143.866H580.774C579.185 147.177 576.537 150.719 572.83 154.492C569.122 158.266 564.19 161.477 558.033 164.125C551.876 166.773 544.362 168.097 535.49 168.097ZM539.065 147.044C548.334 147.044 556.146 145.224 562.502 141.582C568.924 137.941 573.757 133.24 577.001 127.481C580.311 121.721 581.966 115.663 581.966 109.307V87.857C580.973 89.0487 578.788 90.1411 575.412 91.1341C572.102 92.061 568.262 92.8886 563.892 93.6168C559.589 94.2789 555.385 94.8747 551.28 95.4044C547.242 95.8678 543.964 96.265 541.449 96.596C535.358 97.3905 529.664 98.6815 524.368 100.469C519.138 102.19 514.9 104.805 511.656 108.314C508.479 111.757 506.89 116.458 506.89 122.416C506.89 130.559 509.902 136.716 515.927 140.887C522.018 144.992 529.73 147.044 539.065 147.044Z" fill="#010C04"></path>
<path d="M487.934 45.8165C487.391 47.3546 487.14 48.9789 487.196 50.5965C487.252 52.2142 487.614 53.7936 488.26 55.2447C488.906 56.6957 489.825 57.9898 490.963 59.0533C492.101 60.1167 493.436 60.9286 494.893 61.4426C496.349 61.9566 497.898 62.1626 499.452 62.0488C501.005 61.9351 502.532 61.5038 503.946 60.7797C505.36 60.0555 506.632 59.0527 507.691 57.8284C508.75 56.6041 509.574 55.1823 510.117 53.6443L499.025 49.7304L487.934 45.8165Z" fill="#010C04"></path>
<path d="M581.953 154.58C581.953 156.211 582.257 157.826 582.848 159.333C583.439 160.84 584.306 162.209 585.398 163.362C586.49 164.516 587.787 165.43 589.214 166.055C590.641 166.679 592.17 167 593.715 167C595.26 167 596.789 166.679 598.216 166.055C599.643 165.43 600.94 164.516 602.032 163.362C603.124 162.209 603.991 160.84 604.582 159.333C605.173 157.826 605.477 156.211 605.477 154.58L593.715 154.58L581.953 154.58Z" fill="#010C04"></path>
<path d="M657.049 156.006C657.049 162.515 651.772 167.792 645.263 167.792C638.754 167.792 633.477 162.515 633.477 156.006L633.477 22.0906C633.477 15.5814 638.754 10.3047 645.263 10.3047C651.772 10.3047 657.049 15.5814 657.049 22.0906L657.049 156.006Z" fill="#010C04"></path>
</svg>